<?xml version="1.0" encoding="UTF-8"?>
<svg viewBox="0 0 224.66 254.27" xmlns="http://www.w3.org/2000/svg">
 <path d="m220.88 132.3c0.018051 60.508-49.028 109.57-109.54 109.57-60.508 0-109.55-49.061-109.54-109.57-0.018047-60.508 49.028-109.57 109.54-109.57 60.508 0 109.55 49.061 109.54 109.57z" fill="#fff" stroke="#000" stroke-linecap="round" stroke-linejoin="round" stroke-width="3.287"/>
 <path d="m202 72.414c-5.4512 6.5541-6.2998 17.009-4.6026 21.045 1.2522 2.9776 9.5618 4.442 17.508 5.1766-3.112-9.3702-7.4738-18.181-12.906-26.222zm-195.21 29.396c-2.8941 9.7175-4.4454 25.066-4.4471 30.628-0.001679 5.5618 0.42731 11.026 1.2439 16.362 8.2573 4.7505 18.976 20.388 28.113 21.569 11.444 1.479 8.9564-21.692 1.9903-23.172-6.9661-1.479-9.9515-12.325-10.449-24.158-0.33412-7.9456-4.7246-15.67-16.451-21.23zm213.49 27.732c-2.9421 1.3571-5.6755 3.3914-7.9612 6.3167-11.942 15.283-21.893 4.9301-33.835 10.353-11.942 5.4232-3.9806 19.228 0.49757 32.539 3.242 9.6368-2.6293 28.822 4.4471 34.757 22.644-19.798 36.924-48.794 36.914-81.07 2.75e-4 -0.97363-0.005539-1.929-0.031113-2.8964-0.008743 0.003967-0.022354-0.004089-0.031097 0zm-148.28 9.2748c4.9758 15.283-5.9709 9.8602-7.9612 20.213s33.338 13.311 39.308 34.511c5.9709 21.2 32.84 9.8602 32.342-1.972-0.49759-11.832-17.913-17.255-13.435-24.158 4.4782-6.9022 13.435-21.2 13.435-21.2l-63.69-7.3951z" fill="#2d2d2d" fill-rule="evenodd"/>
 <g stroke="#000" stroke-linejoin="round" stroke-width="4">
  <path d="m119.53 242.87c0 9.0908 14.665 9.3814 32.735 9.3814s32.735 0.69348 32.735-9.3814c0-17.716-14.665-32.094-32.735-32.094s-32.735 14.378-32.735 32.094z" fill="#232323" stroke-linecap="round"/>
  <path d="m164.85 251.65c0-16.368-9.4428-26.44-9.4428-26.44s3.7771 13.85 3.1476 26.44h6.2952z" fill-opacity=".314" fill-rule="evenodd"/>
  <path d="m108.69 2.0078c-30.129 0.6106-50.932 11.653-63.625 28.75-24.064-2.5878-44.062 23.625-44.062 23.625s18.891 9.4463 32.062 1.5312c-2.3992 8.7117-3.5625 18.106-3.5625 27.906 0 45.174 56.126 81.844 81.844 81.844 26.717 0 81.844-36.669 81.844-81.844 0-9.8003-1.1639-19.194-3.5625-27.906 13.171 7.9151 32.031-1.5312 32.031-1.5312s-19.971-26.205-44.031-23.625c-13.062-17.595-34.708-28.75-66.281-28.75-0.89395 0-1.7782-0.017792-2.6562 0z" fill="#fff" stroke-linecap="round"/>
 </g>
 <path d="m125.56 3.9763c25.721 17.926-3.0496 17.142-8.75 23.281-6.5 7-9 17-1.5 23.5s46 17.5 51.5-0.5c2.8354-9.2793-0.56613-20.802-2.3438-30.969-10.018-7.8614-22.904-13.242-38.906-15.312z" fill="#2b2a2a" fill-rule="evenodd"/>
 <g stroke-linejoin="round">
  <g stroke-linecap="round">
   <path d="m139.28 72.332c0.001755 8.3147-4.724 15.056-10.554 15.056-5.8301 0-10.556-6.7417-10.554-15.056-0.00174-8.3147 4.724-15.056 10.554-15.056 5.8301 0 10.556 6.7418 10.554 15.056z" stroke-width="47.667"/>
   <g stroke="#000" stroke-width="4">
    <path d="m111.34 115.26c-19.862 0-35.969 13.216-35.969 29.5 0 3.0196 0.5641 5.9436 1.5938 8.6875 12.712 7.7434 25.394 12.219 34.375 12.219 9.1982 0 21.757-4.3312 34.281-11.875 1.1132-2.8427 1.7188-5.8866 1.7188-9.0312 0-16.284-16.138-29.5-36-29.5z" fill="#ffd5e5"/>
    <path d="m104.53 242.87c0 9.0908-14.665 9.3814-32.735 9.3814s-32.735 0.69348-32.735-9.3814c0-17.716 14.665-32.094 32.735-32.094s32.735 14.378 32.735 32.094z" fill="#232323"/>
   </g>
  </g>
  <path d="m59.206 251.65c0-16.368 9.4428-26.44 9.4428-26.44s-3.7771 13.85-3.1476 26.44h-6.2952z" fill-opacity=".314" fill-rule="evenodd" stroke="#000" stroke-width="4"/>
  <g stroke-linecap="round" stroke-width="47.667">
   <path d="m127.94 140.46c-2.2927 3.9731-6.5002 5.8386-9.3968 4.1663s-3.3847-6.2489-1.0903-10.221c2.2927-3.9731 6.5003-5.8386 9.3968-4.1663s3.3847 6.2489 1.0903 10.221z"/>
   <path d="m95.207 140.46c2.2927 3.9731 6.5003 5.8386 9.3968 4.1663 2.8966-1.6723 3.3847-6.2489 1.0903-10.221-2.2927-3.9731-6.5002-5.8386-9.3968-4.1663-2.8965 1.6723-3.3847 6.2489-1.0903 10.221z"/>
  </g>
 </g>
 <g fill-rule="evenodd">
  <path transform="rotate(-4.5918 55.012 17.148)" d="m54.312 30.265c-7.3329-1.3281-15.5-21.5-12.5-25.5s26.374 4.4663 27 13.5c0.55218 7.9694-5.3859 13.651-14.5 12z" fill="#333" stroke="#000" stroke-width="4"/>
  <path transform="rotate(7.3356 168.51 15.148)" d="m169.21 28.265c7.3329-1.3281 15.5-21.5 12.5-25.5s-26.374 4.4663-27 13.5c-0.55216 7.9694 5.386 13.651 14.5 12z" fill="#f7f4f4" stroke="#050505" stroke-width="3"/>
 </g>
 <path d="m98.898 72.233c0.00174 8.3147-4.724 15.056-10.554 15.056-5.8301 0-10.556-6.7417-10.554-15.056-0.00174-8.3147 4.724-15.056 10.554-15.056 5.8301 0 10.556 6.7418 10.554 15.056z" stroke-linecap="round" stroke-linejoin="round" stroke-width="47.667"/>
</svg>
