<?xml version="1.0" encoding="UTF-8"?>
<svg viewBox="0 0 640 480" xmlns="http://www.w3.org/2000/svg">
 <g stroke-linecap="round">
  <g stroke="#000">
   <path d="m249.09 362.2c-8.5684 0.84934-7.3346 11.298-6.9504 17.476-0.10966 16.375 0.038864 32.75 0.23842 49.124-13.53-1.7477-27.044-5.3682-40.537-6.4773-7.5659 0.90219-9.1118 12.83-0.92732 14.128 5.2468 1.8233 23.857 2.1336 20.202 4.8078-11.575 5.1918-24.412 8.4188-35.481 14.276-5.9477 5.7415 2.309 16 9.4888 11.501 14.178-5.3121 28.219-10.971 42.352-16.413-1.3392 7.5734-8.1382 14.658-6.712 22.432 3.0761 7.8571 16.395 6.1731 16.648-2.9126 3.5541-9.0745 6.7758-18.282 10.245-27.387 12.682-5.549 26.427-9.388 38.726-15.389 6.1565-4.6763 1.032-15.157-6.6237-12.607-10.483 3.7013-20.806 8.0168-31.131 11.998-0.28818-19.158-0.28131-38.366-0.22076-57.427-0.60413-4.4105-4.8801-7.501-9.3173-7.1294z" fill="#ff7400" fill-rule="evenodd" stroke-width="2.918"/>
   <g fill="#ff0" stroke-linejoin="round" stroke-width="4.137">
    <path d="m480.61 180.98c4.8493-14.364 2.4911-22.856-0.65469-24.887-7.0156-5.6744-15.866-5.4056-24.11-6.9827-4.9584 0.18651-10.643-1.0883-17.73 12.534-5.8372 13.166-9.755 29.54-13.01 44.026-6.4338 29.548-6.3199 56.334 2.0885 59.97 10.506 5.3921 29.14-21.936 43.104-56.206 3.7135-9.0165 7.1979-18.622 10.312-28.454z"/>
    <path d="m507.46 200.88c8.4892-12.62 8.4638-21.423 5.9656-24.192-5.2681-7.2802-13.883-9.2947-21.424-12.935-4.8359-1.0939-9.9855-3.7851-20.438 7.544-9.1254 11.21-17.248 26.01-24.231 39.158-14.044 26.871-21.035 52.758-13.882 58.428 8.7127 7.9046 33.946-13.689 56.511-43.183 5.975-7.7499 11.885-16.127 17.498-24.819z"/>
    <path d="m530.89 222.62c10.974-10.602 12.812-19.217 10.955-22.438-3.6117-8.2011-11.611-11.938-18.216-17.046-4.4982-2.0619-8.9652-5.7503-21.586 3.186-11.298 9.0924-22.374 21.901-31.987 33.328-19.423 23.4-31.74 47.285-25.944 54.298 6.8484 9.5183 36.098-6.4254 64.41-30.644 7.4843-6.3541 15.038-13.335 22.367-20.685z"/>
   </g>
   <path d="m375.65 361.24c-9.6713 1.2629-8.0736 12.754-7.3302 19.649-0.63312 14.904-0.070831 29.949-0.48572 44.907-11.516-3.6068-22.538-10.701-34.576-12.129-9.1268 1.0765-6.6252 14.878 1.7222 14.911 11.159 5.1104 24.529 8.0884 34.319 14.519 4.8312 10.622 6.8038 22.984 13.372 32.605 6.0174 4.9714 17.114-2.478 12.408-9.6073-1.6948-6.7534-11.454-21.661 1.711-13.398 13.027 4.4638 25.523 11.146 38.87 14.311 8.7215 0.092987 9.6209-13.93 0.79486-14.563-11.246-4.3907-22.491-8.7814-33.736-13.172 8.6208-2.6666 19.469-0.67331 26.892-6.1296 5.1779-5.7328-3.0926-14.609-9.6705-11.303l-35.856 5.9991c-0.11359-20.723 1.1361-41.746-0.39746-62.295-1.3982-2.9093-4.8191-4.622-8.0367-4.3037z" fill="#ff7400" fill-rule="evenodd" stroke-width="2.918"/>
  </g>
  <g stroke-linejoin="round">
   <g stroke-width="4">
    <path d="m467.45 268.7c0.025482 84.173-69.28 152.42-154.78 152.42-85.501 0-154.81-68.249-154.78-152.42-0.025497-84.173 69.28-152.42 154.78-152.42 85.501 0 154.81 68.249 154.78 152.42z" fill="#ff0" stroke="#000"/>
    <path d="m458.1 216.42c0.10852 2.3393 0.17664 4.7204 0.17664 7.0859 0 84.112-69.334 152.37-154.77 152.37-66.784 0-123.77-41.732-145.46-100.12 3.7495 80.84 71.604 145.33 154.64 145.33 85.439 0 154.77-68.257 154.77-152.37 0-18.366-3.3039-35.988-9.3614-52.297z" fill-opacity=".314"/>
   </g>
   <g stroke="#000">
    <g fill="#f00" fill-rule="evenodd">
     <path d="m319.64 55.653l-6.964 65.257c14.96-14.542 30.803-28.035 51.751-33.763 58.41-15.973-16.507-68.407-44.787-31.494z" stroke-width="2.7"/>
     <path d="m297.65 42.64l12.565 77.756c9.8402-21.676 20.82-42.424 38.888-55.846 50.381-37.423-35.615-73.788-51.453-21.91z" stroke-width="2.94"/>
    </g>
    <path d="m414.93 174.03c0.017273 57.148-47.036 103.48-105.08 103.48-58.049 0-105.1-46.336-105.08-103.48-0.017303-57.148 47.036-103.48 105.08-103.48 58.049 0 105.1 46.336 105.08 103.48z" fill="#ff0" stroke-width="2.716"/>
   </g>
   <path d="m382.04 156.51c0.004944 16.363-13.468 29.63-30.088 29.63-16.621 0-30.093-13.267-30.088-29.63-0.004944-16.363 13.468-29.63 30.088-29.63 16.621 0 30.093 13.267 30.088 29.63z" fill="#fff" stroke="#000" stroke-width="2.71"/>
   <path d="m355.3 161.73c0.001648 5.4542-4.4892 9.8766-10.029 9.8766-5.5403 0-10.031-4.4224-10.029-9.8766-0.001678-5.4542 4.4892-9.8766 10.029-9.8766 5.5403 0 10.031 4.4224 10.029 9.8766z" stroke-width="47.667"/>
   <path d="m299.82 156.51c0.004974 16.363-13.468 29.63-30.088 29.63-16.621 0-30.093-13.267-30.088-29.63-0.004944-16.363 13.468-29.63 30.088-29.63 16.621 0 30.093 13.267 30.088 29.63z" fill="#fff" stroke="#000" stroke-width="2.71"/>
   <path d="m287.28 161.73c0.001648 5.4542-4.4892 9.8766-10.029 9.8766-5.5403 0-10.031-4.4224-10.029-9.8766-0.001617-5.4542 4.4892-9.8766 10.029-9.8766 5.5403 0 10.031 4.4224 10.029 9.8766z" stroke-width="47.667"/>
   <path d="m412.63 138.95l-2.4662 3.6951c0.32736 4.2783 0.45215 8.6285 0.45215 13.042 0 62.842-63.656 115-107.65 108.16-36.632-5.6934-80.361-27.353-100.05-73.034 10.017 55.987 75.2 97.48 106.38 97.155 69.117-0.71167 107.65-48.876 107.65-111.72 0-13.065-1.4145-25.611-4.3159-37.299z" fill-opacity=".314" stroke-width="4"/>
   <g fill-rule="evenodd" stroke="#000">
    <path d="m280.22 224.5l26.046 60.399 28.635-54.23c-9.9185-24.642-39.978-27.759-54.681-6.1692z" fill="#f00" stroke-width="2.7"/>
    <path d="m273.61 206.8l17.962 70.153 46.052-50.575c-6.4821-28.453-41.732-38.925-64.013-19.578z" fill="#ffce00" stroke-width="3.099"/>
    <path d="m270.03 35.558l38.594 85.863c1.8038-25.14 4.9998-49.345 17.392-65.992 34.554-46.417-58.931-79.344-55.987-19.871z" fill="#f00" stroke-width="3.062"/>
   </g>
  </g>
 </g>
</svg>
