<?xml version="1.0" encoding="UTF-8"?>
<svg viewBox="0 0 269.8 257.64" xmlns="http://www.w3.org/2000/svg">
 <g stroke-linecap="round" stroke-linejoin="round">
  <g stroke-width="4">
   <path d="m225.27 104.57c0.014236 47.807-38.737 86.569-86.544 86.569s-86.558-38.763-86.544-86.569c-0.014248-47.807 38.737-86.569 86.544-86.569s86.558 38.763 86.544 86.569z" fill-opacity=".314"/>
   <g fill="#939dac" stroke="#000">
    <path d="m265.51 90.103c-8.9527 33.441-36.063 55.237-60.546 48.676-24.483-6.5602-37.064-38.991-28.096-72.428 8.9527-33.441 29.981-32.537 54.464-25.977 24.483 6.5602 43.146 16.292 34.179 49.729z"/>
    <path d="m4.2862 90.103c8.9527 33.441 36.063 55.237 60.546 48.676 24.483-6.5602 37.064-38.991 28.096-72.428-8.9527-33.441-29.981-32.537-54.464-25.977-24.483 6.5602-43.146 16.292-34.179 49.729z"/>
   </g>
   <g fill-opacity=".314">
    <path d="m198.94 38.179c-9.7436 2.9733-17.483 11.083-22.062 28.188-8.9673 33.437 3.6106 65.846 28.094 72.406 2.6674 0.71474 5.3596 1.0618 8.0625 1.125 6.681-12.281 10.473-26.379 10.469-41.344 0.007004-23.492-9.3733-44.777-24.562-60.375z"/>
    <path d="m205.16 43.242c-14.769-0.15354-26.626 6.6342-32.781 29.625-4.9684 18.526-3.3394 36.727 3.2812 50.406 4.9647-23.478 27.197-52.565 60.062-54 13.328-0.58212 28.808 8.0464 24.312-2.4688s-18.412-15.97-33.219-19.938c-7.651-2.0501-14.943-3.5552-21.656-3.625z"/>
    <path d="m65.15 43.242c14.769-0.15354 26.626 6.6342 32.781 29.625 4.9684 18.526 3.3394 36.727-3.2812 50.406-4.9647-23.478-27.197-52.565-60.062-54-13.328-0.58212-28.808 8.0464-24.312-2.4688s18.412-15.97 33.219-19.938c7.651-2.0501 14.943-3.5552 21.656-3.625z"/>
   </g>
   <g stroke="#000">
    <path d="m220.77 88.569c0.014236 47.807-38.737 86.569-86.544 86.569s-86.558-38.763-86.544-86.569c-0.014248-47.807 16.077-86.569 86.544-86.569 71.88 0 86.558 38.763 86.544 86.569z" fill="#939dac"/>
    <g fill="#fff">
     <path d="m130.6 72.099c0.003723 12.519-10.144 22.67-22.663 22.67s-22.666-10.151-22.663-22.67c-0.003731-12.519 10.144-22.67 22.663-22.67s22.666 10.151 22.663 22.67z"/>
     <path d="m183.33 72.099c0.003723 12.519-10.144 22.67-22.663 22.67s-22.666-10.151-22.663-22.67c-0.003723-12.519 10.144-22.67 22.663-22.67s22.666 10.151 22.663 22.67z"/>
    </g>
   </g>
  </g>
  <g stroke-width="47.667">
   <path d="m163.19 76.099c0.001251 4.173-3.3813 7.5565-7.5542 7.5565-4.173 0-7.5555-3.3835-7.5543-7.5565-0.001236-4.173 3.3813-7.5565 7.5543-7.5565s7.5555 3.3835 7.5542 7.5565z"/>
   <path d="m121.16 76.099c0.001251 4.173-3.3813 7.5565-7.5542 7.5565-4.173 0-7.5555-3.3835-7.5542-7.5565-0.001251-4.173 3.3813-7.5565 7.5542-7.5565 4.173 0 7.5555 3.3835 7.5542 7.5565z"/>
  </g>
 </g>
 <g stroke-width="4">
  <g stroke-linecap="round" stroke-linejoin="round">
   <path d="m157.46 220.5c0.004715 15.788-12.792 28.588-28.58 28.588-15.787 0-28.584-12.801-28.58-28.588-0.0047-15.788 12.792-28.588 28.58-28.588 15.787 0 28.584 12.801 28.58 28.588z" fill="#939dac" stroke="#000"/>
   <path d="m219.25 72.461c-4.9306 47.578-45.146 84.688-94.031 84.688-26.651 0-50.721-11.041-67.906-28.781 14.4 27.794 43.441 46.781 76.906 46.781 47.807 0 86.577-38.787 86.562-86.594 0.001648-5.5039-0.55058-10.875-1.5312-16.094z" fill-opacity=".314"/>
  </g>
  <g fill-rule="evenodd">
   <path transform="rotate(-.54009 135.55 171.62)" d="m158.39 218.99h-45.681c7.6618-63.286-7.3626-94.75-7.3626-94.75h60.406s-15.024 32.171-7.3626 94.75z" fill="#939dac" stroke-linecap="round"/>
   <g stroke="#000">
    <path d="m164.75 124.24s-15.024 32.171-7.3626 94.75m-45.681 0c7.6618-63.286-7.3626-94.75-7.3626-94.75" fill="none" stroke-linecap="round"/>
    <path d="m187.44 131.78c6.5197 5.2075 6.0526 33.517 2.1865 38.213-3.866 4.6962-26.856-23.582-22.927-32.289 4.134-9.1602 14.607-10.823 20.74-5.9234z" fill="#fff" stroke-linejoin="round"/>
    <g fill="none" stroke-linecap="round">
     <path d="m118.69 113.03c14.5-14.5 31-0.5 31-0.5"/>
     <path d="m123.66 135.53c9.8565-7.8857 21.072-0.27193 21.072-0.27193"/>
     <path d="m125.31 158.03c8.3086-5.681 17.763-0.19589 17.763-0.19589"/>
    </g>
    <path d="m80.765 131.78c-6.5197 5.2075-6.0525 33.517-2.1865 38.213 3.866 4.6962 26.856-23.582 22.927-32.289-4.134-9.1602-14.607-10.823-20.74-5.9234z" fill="#fff" stroke-linejoin="round"/>
   </g>
  </g>
  <g fill-opacity=".314" stroke-linejoin="round">
   <path d="m155.32 209.62c-0.41116 15.425-13.038 27.812-28.562 27.812-11.945-1.5e-5 -22.166-7.3453-26.438-17.75-0.007523 0.27119-0.031334 0.53947-0.03125 0.8125-0.0047 15.788 12.806 28.594 28.594 28.594 15.787 0 28.567-12.806 28.562-28.594 0.00116-3.8531-0.74371-7.5204-2.125-10.875z" stroke-linecap="round"/>
   <path d="m94.656 130.47c0.77658 0.84337 1.503 1.8148 2.125 2.9062 4.5447 7.9754-13.96 36.284-19.219 34.656 0.30552 0.84576 0.62854 1.5175 1 1.9688 3.866 4.6961 26.867-23.606 22.938-32.312-1.5669-3.472-4.037-5.8501-6.8438-7.2188z" fill-rule="evenodd"/>
  </g>
 </g>
</svg>
