<?xml version="1.0" encoding="UTF-8"?>
<svg viewBox="0 0 843.77374 904.86542" xmlns="http://www.w3.org/2000/svg" xmlns:xlink="http://www.w3.org/1999/xlink">
 <defs>
  <linearGradient id="a">
   <stop stop-color="#f0a513" offset="0"/>
   <stop stop-color="#f44800" offset="1"/>
  </linearGradient>
  <linearGradient id="d" x1="17.096" x2="245.04" y1="416.96" y2="544.23" gradientUnits="userSpaceOnUse" xlink:href="#a"/>
  <linearGradient id="c" x1="261.41" x2="92.458" y1="550.78" y2="461.74" gradientUnits="userSpaceOnUse" xlink:href="#a"/>
  <linearGradient id="j" x1="370.73" x2="85.415" y1="1163.5" y2="1125.5" gradientTransform="matrix(.74434 0 0 1 66.146 -29.799)" gradientUnits="userSpaceOnUse" xlink:href="#a"/>
  <linearGradient id="i" x1="533.79" x2="671.96" y1="1133.7" y2="1078.8" gradientUnits="userSpaceOnUse" xlink:href="#a"/>
  <linearGradient id="h" x1="524.48" x2="312.14" y1="1159.5" y2="1205.1" gradientUnits="userSpaceOnUse" xlink:href="#a"/>
  <linearGradient id="g" x1="529.91" x2="659.56" y1="1125.5" y2="1074" gradientTransform="matrix(-1.0657 0 0 1.0657 731.1 -110.39)" gradientUnits="userSpaceOnUse" xlink:href="#a"/>
  <radialGradient id="e" cx="311.69" cy="714.76" r="67.236" gradientTransform="matrix(1.0159 .00524 -.00493 .95733 -1.4407 28.866)" gradientUnits="userSpaceOnUse">
   <stop stop-color="#1a1a1a" offset="0"/>
   <stop offset="1"/>
  </radialGradient>
  <radialGradient id="f" cx="397.93" cy="781.5" r="130.52" gradientTransform="matrix(1.0306 -.12203 .14993 1.2661 -130.7 -156.5)" gradientUnits="userSpaceOnUse" xlink:href="#a"/>
  <radialGradient id="b" cx="7.1429" cy="1625.9" r="72.857" gradientUnits="userSpaceOnUse" xlink:href="#a"/>
 </defs>
 <g transform="translate(53.343 -393.64)">
  <path d="m165.12 842.1s38.176 326.73 12.725 402.71c0 0-15.553 37.991 36.762 1.8995 0 0-5.6557 39.891 35.348 20.895 0 0 11.311 26.594 35.348 11.397 0 0 31.106-28.494 42.418-112.07 0 0 7.0696-81.682 35.348-89.28s-197.95-235.55-197.95-235.55z" fill="url(#j)" stroke="#4c0202" stroke-width="3.451"/>
  <g transform="matrix(1.0472 0 0 1.0396 8.0706 -21.252)">
   <path d="m227.23 1024-91.613 108.79s-14.315 14.314-47.238-1.4315-42.944-35.786-42.944-35.786-27.198-22.903-8.5887-31.492 38.649 4.2943 38.649 4.2943 10.02 5.7259 25.766-18.609 42.944-91.613 42.944-91.613z" fill="url(#g)" stroke="#4c0202" stroke-width="4.2628"/>
   <path transform="matrix(-2.5847 -1.4065 -.52898 .97211 1901.6 503.65)" d="m439.56 1249.1c2.9617 9.8551 2.6234 20.495-0.6716 30.222" fill="none" stroke="#4c0202" stroke-linecap="round" stroke-width="2.2166"/>
   <path transform="matrix(-2.5847 -1.4065 -.52898 .97211 1870.2 484.65)" d="m439.56 1249.1c2.9617 9.8551 2.6234 20.495-0.6716 30.222" fill="none" stroke="#4c0202" stroke-linecap="round" stroke-width="2.2166"/>
   <path d="m105.46 1148s-9.4762-25.046 3.0559-30.256c0 0 10.012 1.0657 5.1025 8.7133 0 0-7.7139 2.2865-8.1584 21.543z" fill="#030000"/>
   <path d="m71.501 1130s-9.4762-25.046 3.0559-30.256c0 0 10.012 1.0657 5.1025 8.7133 0 0-7.7139 2.2865-8.1584 21.543z" fill="#030000"/>
   <path d="m43.245 1102.9s-9.4762-25.046 3.0559-30.256c0 0 10.012 1.0657 5.1025 8.7133 0 0-7.7139 2.2865-8.1584 21.543z" fill="#030000"/>
  </g>
  <path d="m352.01 1070.8s34.465 200.64 46.629 212.15c0 0 22.301 13.157 40.547-3.2891 0 0 46.629 16.446 58.793-3.2892 0 0 38.52 1.6446 42.574-19.735 0 0 13.87-15.682-10.384-34.212 0 0-24.081 1.321-28.136-51.305l-20.274-105.25z" fill="url(#h)" stroke="#4c0202" stroke-width="4.2926"/>
  <path d="m472.94 1068.6 91.613 108.79s14.315 14.314 47.238-1.4315 42.944-35.786 42.944-35.786 27.198-22.903 8.5887-31.492-38.649 4.2943-38.649 4.2943-10.02 5.7259-25.766-18.609-42.944-91.613-42.944-91.613z" fill="url(#i)" stroke="#4c0202" stroke-width="4.2628"/>
  <path d="m358.43 1106.8c-91.166-4.7093-232.08-116.8-227.53-205.12s113.67-157.78 243.72-155.13 231.79 76.395 227.23 164.72-148.62 200.43-243.42 195.54z" fill="#e4d384" opacity=".99" stroke="#4c0202" stroke-width="4.3697"/>
  <path transform="matrix(-1 0 0 1 796.13 36.494)" d="m243.15 489.14c0 65.569-53.154 118.72-118.72 118.72s-118.72-53.154-118.72-118.72 53.154-118.72 118.72-118.72 118.72 53.154 118.72 118.72z" fill="url(#d)" opacity=".99"/>
  <path transform="matrix(-.832 0 0 .832 760.98 132.92)" d="m243.15 489.14c0 65.569-53.154 118.72-118.72 118.72s-118.72-53.154-118.72-118.72 53.154-118.72 118.72-118.72 118.72 53.154 118.72 118.72z" fill="url(#c)" opacity=".99"/>
  <path transform="translate(-37.991 36.293)" d="m243.15 489.14c0 65.569-53.154 118.72-118.72 118.72s-118.72-53.154-118.72-118.72 53.154-118.72 118.72-118.72 118.72 53.154 118.72 118.72z" fill="url(#d)" opacity=".99"/>
  <path transform="matrix(.832 0 0 .832 -2.8418 132.71)" d="m243.15 489.14c0 65.569-53.154 118.72-118.72 118.72s-118.72-53.154-118.72-118.72 53.154-118.72 118.72-118.72 118.72 53.154 118.72 118.72z" fill="url(#c)" opacity=".99"/>
  <path d="m189.77 396.66c-27.817 0.191-51.075 12.357-94.792 40.97l49.894 24.987s-71.258 1.2643-90.451 44.701c0 0 59.852-10.395 85.106-2.3136 0 0-37.003 37.8-84.48 40.83 0 0 42.584 17.955 63.797 14.924 0 0-39.324 39.628-75.69 40.638 0 0 57.518 15.892 77.721 8.8214 0 0-94.828 26.128-96.848 143.31 0 0 11.124-17.178 45.469-21.219 0 0-41.416 89.9 0 143.44 0 0 2.0156-38.387 22.219-43.438 0 0 3.0244 90.93 56.562 141.44 0 0-13.121-35.371 2.0313-60.625 0 0 27.27 90.913 103.03 115.16 0 0-18.174-28.264-7.0625-42.406 0 0 54.532 34.352 57.562 64.656 0 0 20.205-34.356 6.0625-42.438 0 0 54.541 26.428 67.344 55l0.0312 7.625c0.2482-1.539 0.6349-3.0897 1.1563-4.625 0.5231 1.5386 0.9387 3.0827 1.1875 4.625l0.0312-7.625c12.803-28.572 67.344-55 67.344-55-14.142 8.0811 6.0313 42.438 6.0313 42.438 3.0305-30.305 57.594-64.656 57.594-64.656 11.112 14.142-7.0625 42.406-7.0625 42.406 75.762-24.244 103.03-115.16 103.03-115.16 15.152 25.254 2.0313 60.625 2.0313 60.625 53.538-50.508 56.562-141.44 56.562-141.44 20.203 5.0508 22.219 43.438 22.219 43.438 41.416-53.538 0-143.44 0-143.44 34.345 4.0406 45.438 21.219 45.438 21.219-2.0203-117.18-62.625-141.41-62.625-141.41 20.203 7.071 45.428-29.717 45.428-29.717-36.366-1.0101-73.79-29.241-73.79-29.241 21.213 3.0305 37.203-41.518 37.203-41.518-47.477-3.0304-71.183-27.533-71.183-27.533 25.254-8.0812 61.362-10.034 61.362-10.034-19.193-43.437-80.953-33.303-80.953-33.303l33.717-23.087c-145.46-62.209-233.02 15.57-258.76 18.761s-89.424-31.932-121.23-38.836z" fill="#520"/>
  <path d="m425.2429,783.9046c3.17-1.8331 6.5706-3.0907 10.0982-4.037 4.7703-1.0847 9.6846-1.355 14.5606-1.2105 5.5273.581 11.0924.8509 16.5837,1.7254 6.1328.5074 12.2496,1.2577 18.3497,2.0754 4.1591.5976 8.35.8794 12.547.9992 2.9571.0611 5.915.0485 8.8724.0398 2.6317-.4118 5.2718-.7022 7.9299-.8694 3.0636-.158 6.1337-.1488 9.2006-.1446 3.2268.1649 6.4-.1002 9.5914-.5272 1.6333-.1996.8285-.1096 2.4145-.2714l-8.7894,6.5285c-1.562.1713-.7682.0801-2.3813.2744-3.2008.3809-6.4003.4644-9.6235.3854-3.0677.0251-6.1381.0285-9.2006.2338-2.6671.2036-5.3065.6301-7.974.8096-2.9514-.0002-5.9037.006-8.8536-.1032-4.183-.1784-8.3547-.5266-12.4946-1.1716-6.0906-.8681-12.2096-1.5308-18.3349-2.0998-5.4845-.7628-11.0189-1.1196-16.535-1.5884-4.8441-.0271-9.7253.2675-14.4285,1.5115-3.531,1.081-6.9146,2.4647-10.1215,4.3105l8.5888-6.8702z" opacity=".857"/>
  <path d="m348.57 541.38s12.347-116.82 110.18-133.92c0 0-51.288 22.795-48.439 49.389 0 0 69.334-74.083 119.67-57.937 0 0-56.037-6.6485-61.736 51.288 0 0 52.238-53.188 110.18-37.991l16.146 6.6485s-126.32-8.5481-165.26 124.42z" fill="#703107"/>
  <path d="m357.12 526.87s20.431-87.342 71.74-103.1c0 0-30.132 23.446-33.595 57.989 0 0 39.568-55.557 89.72-71.534 0 0-20.638 15.366-22.878 44.133 0 0 56.398-51.588 91.619-35.416 0 0-86.269 12.621-146.59 126.23z" fill="#834212"/>
  <path transform="matrix(1.2357 0 0 1.0825 -263.23 -54.305)" d="m490 612.36c0 23.669-15.35 42.857-34.286 42.857s-34.286-19.188-34.286-42.857 15.35-42.857 34.286-42.857c18.798 0 34.09 18.919 34.284 42.415" fill="#790000"/>
  <path transform="matrix(1.2357 0 0 1.0825 -263.23 -54.305)" d="m490 612.36c0 23.669-15.35 42.857-34.286 42.857s-34.286-19.188-34.286-42.857 15.35-42.857 34.286-42.857c18.798 0 34.09 18.919 34.284 42.415" fill="#790000"/>
  <path transform="matrix(1.2357 0 0 1.0825 -125.85 -54.326)" d="m490 612.36c0 23.669-15.35 42.857-34.286 42.857s-34.286-19.188-34.286-42.857 15.35-42.857 34.286-42.857c18.798 0 34.09 18.919 34.284 42.415" fill="#790000"/>
  <path transform="matrix(1.2357 0 0 1.0825 -125.85 -54.326)" d="m490 612.36c0 23.669-15.35 42.857-34.286 42.857s-34.286-19.188-34.286-42.857 15.35-42.857 34.286-42.857c18.798 0 34.09 18.919 34.284 42.415" fill="#790000"/>
  <path d="m354.27 516.68s1.8996-75.983-72.184-95.928c0 0 30.393 8.5481 40.841 55.088 0 0-46.54-61.736-77.882-68.385 0 0 37.042 20.895 39.891 50.339 0 0-52.238-65.535-98.778-55.088 0 0 65.535-13.297 108.28 123.47z" fill="#703107"/>
  <path d="m345.72 523.33s-1.8996-54.138-26.594-78.832c0 0 11.397 21.845 10.448 37.991 0 0-8.5481 4.7489-39.891-37.991l3.7991 27.544s-26.594-30.393-32.293-31.343c0 0 41.791 47.489 48.439 95.928z" fill="#834212"/>
  <path d="m288.73 548.98s-37.042-162.41-116.82-134.87c0 0 71.234-28.494 76.933 102.58 0 0-57.937-94.029-172.86-21.845 0 0 114.92-44.64 139.62 27.544 0 0-38.941-49.389-78.832 0 0 0 52.238-33.242 71.234 18.996l14.247 37.042z" fill="#703107"/>
  <path d="m275.44 556.57s-0.9498-53.188-27.544-96.878c0 0 11.397 43.69 9.4978 64.585 0 0-68.384-67.435-110.18-48.439 0 0 49.389-10.448 76.933 44.64l2.8493 11.397s-39.891-37.991-64.585-24.694c0 0 53.188-13.297 80.732 71.234z" fill="#834212"/>
  <path d="m215.6 589.82s-15.197-88.33-127.27 4.7489c0 0 54.138 25.644 127.27-4.7489z" fill="#703107"/>
  <path d="m226.05 593.62s-37.042-55.088-101.63-6.6485c0 0 59.836 16.146 101.63 6.6485z" fill="#834212"/>
  <path d="m439.75 547.08s66.485-156.71 202.3-82.631c0 0-134.87 3.7992-167.16 111.12s-35.142-28.494-35.142-28.494z" fill="#5e2702"/>
  <path d="m453.05 551.83s49.389-124.42 147.22-93.079c0 0-84.531-16.146-130.12 99.728s-17.096-6.6485-17.096-6.6485z" fill="#834212"/>
  <path d="m468.24 541.38s61.736-84.531 197.56-18.996c0 0-4.7489 15.197-42.74 30.393 0 0 25.644 10.448 105.43 186.16 0 0-83.581-123.47-121.57-117.77l-75.983 11.397z" fill="#703107"/>
  <path d="m458.75 567.97s57.937-84.531 178.56-42.74l-36.092 23.745s47.489 40.841 80.732 113.97c0 0-75.983-101.63-147.22-45.59z" fill="#834212"/>
  <path d="m227 619.26s-158.61-25.644-188.06 111.12c6.6485-0.9498 37.042-20.895 56.037-17.096 0 0-31.343 62.686-24.694 115.87 0 0 61.736-112.07 106.38-67.435z" fill="#703107"/>
  <path d="m199.45 636.36s-104.48-15.197-140.57 71.234c0 0 44.64-30.393 51.288-16.146 0 0-27.544 64.585-18.996 90.23 0 0 56.037-75.033 79.782-44.64z" fill="#834212"/>
  <path d="m184.26 788.32s-128.22-79.782-51.288 150.07c0 0-1.8996-61.736 18.046-44.64 0 0 37.991 88.33 84.531 115.87 0 0-57.937-132.97-37.991-167.16s-13.297-54.138-13.297-54.138z" fill="#703107"/>
  <path d="m177.61 798.77s-57.937-37.991-47.489 37.991v47.489l19.946-29.443s27.544 78.832 56.987 115.87c0 0-50.339-162.41-29.443-171.91z" fill="#834212"/>
  <path d="m283.04 912.74s41.791 55.088 92.129 137.72c0 0 65.535-132.02 92.129-140.57s-184.26 2.8493-184.26 2.8493z" fill="#703107"/>
  <path d="m304.88 924.14s59.836 81.682 63.636 103.53c0 0 52.238-93.079 62.686-99.728s-126.32-3.7991-126.32-3.7991z" fill="#834212"/>
  <path d="m326.73 930.79s36.092 38.941 41.791 70.284c0 0 18.046-71.234 45.59-72.184z" fill="#520"/>
  <path d="m227 854.81s-30.393 22.795 9.4978 109.23c0 0-5.6987-55.088 6.6485-38.941 0 0 4.7489 62.686 43.69 75.033 0 0-20.895-23.745-17.096-55.088 0 0 34.192 23.745 31.343 46.54 0 0 25.644-34.192-33.242-86.43z" fill="#703107"/>
  <path d="m572.72 754.13c70.284 33.242 56.987 165.26 56.987 165.26 31.343-75.983 19.946-148.17 19.946-148.17 18.046 18.996 41.791 65.535 41.791 65.535-8.5481-238.4-140.57-161.46-140.57-161.46z" fill="#703107"/>
  <path d="m531.88 704.74s106.38-83.581 149.12 89.28c0 0-31.343-64.585-63.636-54.138 0 0 32.293 25.644 23.745 122.52 0 0-19.946-119.67-66.485-123.47s-42.74-34.192-42.74-34.192z" fill="#834212"/>
  <path d="m567.97 784.52s73.134 114.92-33.242 217.5l-11.397-45.59s-38.941 26.594-52.238 48.439c0 0-31.343-39.891 12.347-102.58s84.531-117.77 84.531-117.77z" fill="#703107"/>
  <path d="m534.73 803.52s77.882 18.046 13.297 156.71l-21.845-30.393s-45.59 32.293-51.288 54.138c0 0-0.9498-56.987 41.791-113.02s18.046-67.435 18.046-67.435z" fill="#834212"/>
  <path transform="matrix(1.6841 0 0 1.6841 -297.12 -599)" d="m526.23 784.51c0 72.084-58.435 130.52-130.52 130.52s-130.52-58.435-130.52-130.52 58.435-130.52 130.52-130.52 130.52 58.435 130.52 130.52z" fill="url(#f)"/>
  <path transform="matrix(1.2357 0 0 1.0825 -263.23 -54.305)" d="m490 612.36c0 23.669-15.35 42.857-34.286 42.857s-34.286-19.188-34.286-42.857 15.35-42.857 34.286-42.857c18.798 0 34.09 18.919 34.284 42.415" fill="#790000"/>
  <path transform="matrix(1.1194 0 0 1.0262 -209.45 -18.737)" d="m490 612.36c0 23.669-15.35 42.857-34.286 42.857s-34.286-19.188-34.286-42.857 15.35-42.857 34.286-42.857c18.798 0 34.09 18.919 34.284 42.415" fill="#fdfded"/>
  <path transform="matrix(1.2357 0 0 1.0825 -125.85 -54.326)" d="m490 612.36c0 23.669-15.35 42.857-34.286 42.857s-34.286-19.188-34.286-42.857 15.35-42.857 34.286-42.857c18.798 0 34.09 18.919 34.284 42.415" fill="#790000"/>
  <path d="m248.4975,554.357c-.2737-.4149.0796-1.2303 1.0189-2.3655s2.4656-2.5905 4.5656-4.223 4.7754-3.4425 8.0189-5.2163 7.057-3.5107 11.4126-4.929c3.3942-1.1029 7.1194-1.977 11.0834-2.4635s8.1662-.5841 12.467-.1463c.7909.0805 1.5773.1783 2.3584.2931 4.5843.6954 8.8871,1.9735 12.7832,3.6112s7.3855,3.6328 10.414,5.7605c3.3594,2.3657 6.1593,4.8474 8.4542,7.2047s4.0866,4.5899 5.4296,6.5207 2.2386,3.5605 2.7187,4.7697 .5458,1.9983.1893,2.2953c-.7129.5941-2.9889-.886-6.5738-3.5333-1.7925-1.3237-3.9208-2.9308-6.3877-4.6467s-5.2725-3.54-8.4328-5.2522c-5.6482-3.0658-12.5038-5.7981-20.0368-6.8434-.6415-.0927-1.2887-.1732-1.9411-.2415-7.0952-.7429-14.0372.0331-20.1309,1.3727-3.9425.8655-7.5485,1.9717-10.7626,3.071s-6.0361,2.191-8.4059,3.0816-4.2881,1.5803-5.6873,1.9314-2.2811.3637-2.5548-.0512z" fill="#790000" fill-rule="evenodd"/>
  <path d="m471.2022,554.6113c-.2737.4149-1.1555.4023-2.5548.0512s-3.3175-1.0409-5.6873-1.9314-5.1918-1.9822-8.4059-3.0816-6.8202-2.2055-10.7626-3.071c-6.0937-1.3396-13.0357-2.1156-20.1309-1.3727-.6524.0683-1.2996.1488-1.9411.2415-7.533,1.0453-14.3886,3.7776-20.0368,6.8434-3.1603,1.7122-5.9659,3.5364-8.4328,5.2522s-4.5952,3.323-6.3877,4.6467c-3.585,2.6473-5.8609,4.1274-6.5738,3.5333-.3564-.297-.2908-1.0862.1893-2.2953s1.3757-2.8388 2.7187-4.7697 3.1347-4.1635 5.4296-6.5207 5.0949-4.8389 8.4542-7.2047c3.0285-2.1278 6.5179-4.1229 10.414-5.7605s8.1989-2.9158 12.7832-3.6112c.781-.1148 1.5675-.2126 2.3584-.2931 4.3008-.4378 8.5031-.3403 12.467.1463s7.6892,1.3606 11.0834,2.4635c4.3556,1.4183 8.1691,3.1551 11.4126,4.929s5.9188,3.5839 8.0189,5.2163 3.6264,3.0878 4.5656,4.223 1.2926,1.9505 1.0189,2.3655z" fill="#790000" fill-rule="evenodd"/>
  <path transform="matrix(1.1194 0 0 1.0262 -75.855 -19.022)" d="m490 612.36c0 23.669-15.35 42.857-34.286 42.857s-34.286-19.188-34.286-42.857 15.35-42.857 34.286-42.857c18.798 0 34.09 18.919 34.284 42.415" fill="#fdfded"/>
  <path transform="translate(-8.7914,-6.9791)" d="m344.29 629.86c0 14.004-11.353 25.357-25.357 25.357s-25.357-11.353-25.357-25.357 11.353-25.357 25.357-25.357c13.902 0 25.212 11.194 25.356 25.096" fill="#0169c9"/>
  <path d="m331.79 629.51c0 9.4677-7.6751 17.143-17.143 17.143s-17.143-7.6751-17.143-17.143 7.6751-17.143 17.143-17.143c9.3987 0 17.045 7.5677 17.142 16.966" fill="#036"/>
  <path transform="translate(2,-2)" d="m322.86 621.29c0 2.9602-2.3998 5.36-5.36 5.36s-5.36-2.3998-5.36-5.36 2.3998-5.36 5.36-5.36c2.9387 0 5.3294 2.3662 5.3597 5.3047" fill="#fffafa"/>
  <path transform="matrix(-1 0 0 1 747.19 -4.4078)" d="m344.29 629.86c0 14.004-11.353 25.357-25.357 25.357s-25.357-11.353-25.357-25.357 11.353-25.357 25.357-25.357c13.902 0 25.212 11.194 25.356 25.096" fill="#0169c9"/>
  <path transform="matrix(-1 0 0 1 738.4 2.5712)" d="m331.79 629.51c0 9.4677-7.6751 17.143-17.143 17.143s-17.143-7.6751-17.143-17.143 7.6751-17.143 17.143-17.143c9.3987 0 17.045 7.5677 17.142 16.966" fill="#036"/>
  <path transform="matrix(-1 0 0 1 736.4 .57125)" d="m322.86 621.29c0 2.9602-2.3998 5.36-5.36 5.36s-5.36-2.3998-5.36-5.36 2.3998-5.36 5.36-5.36c2.9387 0 5.3294 2.3662 5.3597 5.3047" fill="#fffafa"/>
  <path transform="translate(259.29 -858.57)" d="m80 1625.9c0 39.843-32.619 72.143-72.857 72.143s-72.857-32.3-72.857-72.143 32.619-72.143 72.857-72.143 72.857 32.3 72.857 72.143z" fill="url(#b)" opacity=".857"/>
  <path d="m317.579,785.9292c-.0933.2773-.5611.4133-1.3478.4765s-1.8929.0599-3.3034.1019-3.1273.1365-5.1583.3349-4.3789.5072-7.0426.8103c-4.9142.6076-10.7547,1.2573-17.3572,1.8114s-13.9692,1.0125-21.9289,1.0425c-3.9831-.009-7.9777-.373-11.9444-.8836s-7.9054-1.1664-11.7995-1.6806c-.4972-.0657-.9914-.1286-1.4828-.1883-4.5243-.5394-9.0207-.9524-13.4291-1.3648s-8.7284-.825-12.898-1.3246-8.1885-1.0864-11.9979-1.801-7.409-1.5568-10.7476-2.5198c-4.2044-1.2317-8.0245-2.3396-11.3953-3.309s-6.2921-1.802-8.689-2.5216c-4.7938-1.4391-7.4942-2.4579-7.4027-3.2275s2.9866-1.2062 8.0937-1.0435c2.5536.0814 5.6566.3201 9.2172.749s7.5785,1.0496 11.9557,1.8546h1e-005c3.1815.5845 6.6037,1.0788 10.2518,1.4864s7.5224.7283 11.6001,1.0128c8.1554.569 17.1396.9577 26.6207,2.0806 .5339.0621 1.0667.1278 1.5985.1966 4.165.5381 8.1166,1.2355 11.8745,1.8055s7.3223,1.0113 10.7232,1.1177c7.6589.2735 14.8845.2645 21.443.2804s12.4477.0566 17.4251.2346c2.6976.0703 5.2278.2253 7.4302.5272s4.0783.7435 5.5583,1.2429 2.5663,1.0493 3.2521,1.5311 .9738.8901.8805,1.1674z" fill="#790000" fill-rule="evenodd"/>
  <path d="m324.7298,799.6079c-.0607.2861-.5093.4772-1.2913.6225s-1.897.2495-3.3192.398-3.1523.3469-5.1883.635-4.3793.6712-7.0359,1.0585c-4.9056.7451-10.7384,1.5457-17.3267,2.2879s-13.9339,1.4263-21.8652,1.7913c-3.888.1648-7.8272.0608-11.7742-.159s-7.9014-.5543-11.8335-.7926l-1.6124-.0916c-9.1482-.4695-18.0903-.6075-26.4404-1.0824s-16.1012-1.2943-22.8619-2.5752c-8.5783-1.6506-15.5863-2.9776-20.4657-4.0361s-7.6291-1.8999-7.5901-2.6721 2.8788-1.3934 7.9451-1.6316 12.3567-.0423 21.1676.7186h1e-005c6.4921.557 13.9167.7827 22.1097.847s17.1601-.0244 26.6399.4467l1.7053.092c4.1324.2439 8.096.6178 11.8874.9085s7.4111.4972 10.8667.465c7.717-.0547 14.9738-.2859 21.5511-.4566s12.4734-.2811 17.4568-.2407h1e-005c2.6882.006 5.1863.0773 7.3722.2747s4.0602.5159 5.5579.8982 2.6202.8228 3.3468,1.2303 1.0588.7776.9982,1.0637z" fill="#790000" fill-rule="evenodd"/>
  <path transform="translate(443.29 -858.57)" d="m80 1625.9c0 39.843-32.619 72.143-72.857 72.143s-72.857-32.3-72.857-72.143 32.619-72.143 72.857-72.143 72.857 32.3 72.857 72.143z" fill="url(#b)" opacity=".857"/>
  <path d="m416.7957,787.7257c-.0921-.2777.1978-.6846.8858-1.1633s1.7769-1.0236 3.2591-1.5162 3.3602-.9256 5.5639-1.2174 4.7347-.4351 7.4325-.4931c4.9782-.1552 10.8675-.1688 17.426-.1546s13.784.0564 21.4441-.182c3.4013-.0908 6.9678-.5158 10.7282-1.0685s7.7153-1.2319 11.8826-1.751c.5321-.0663 1.0652-.1295 1.5994-.1892 9.4862-1.0794 18.472-1.4268 26.6299-1.9584 4.079-.2658 7.9547-.5687 11.6046-.9596s7.0744-.8694 10.2585-1.4393h1e-005c4.3808-.785 8.4015-1.3872 11.964-1.7997s6.6666-.637 9.2205-.7066c5.1078-.1393 8.0009.3107 8.0888,1.0806s-2.6171,1.7763-7.4175,3.1934c-2.4002.7086-5.3253,1.5278-8.7005,2.4817s-7.2004,2.0443-11.4103,3.2567c-3.343.9477-6.9465,1.7734-10.7591,2.4705s-7.8342,1.2655-12.006,1.7459-8.4937.8731-12.9039,1.2654-8.9084.7846-13.4352,1.3031l-1.4836.1815c-3.8964.4963-7.838,1.134-11.807,1.6264s-7.9653.8383-11.9484.8288c-7.9595-.0665-15.324-.5588-21.9239-1.1431s-12.4373-1.2609-17.3487-1.891h-1e-005c-2.6623-.3154-5.0087-.6349-7.0388-.8426s-3.7464-.3101-5.1567-.3586-2.5165-.0502-3.3029-.117-1.2535-.205-1.3456-.4827z" fill="#790000" fill-rule="evenodd"/>
  <path d="m409.5821,801.3715c-.0594-.2864.2746-.6549 1.003-1.0591s1.8529-.8395 3.3524-1.215 3.3752-.6854 5.562-.8727 4.6852-.2468 7.3734-.2409c4.9835-.0176 10.8791.1199 17.4555.3208s13.8322.4654 21.5488.5556c3.4554.0481 7.076-.1418 10.8687-.4151s7.758-.629 11.8915-.854l1.7057-.0841c9.4818-.4276 18.4485-.2978 26.6417-.3244s15.6188-.2183 22.1134-.7455h1e-005c8.8143-.7205 16.1055-.8829 21.1707-.6214s7.9021.8956 7.9375,1.668-2.7182,1.6011-7.6023,2.6373-11.8982,2.3309-20.484,3.9421c-6.7665,1.2499-14.5212,2.0336-22.8734,2.4702s-17.2948.5335-26.4451.961c-.5346.0257-1.0722.0539-1.6128.0842-3.9331.2203-7.8891.5367-11.837.7383s-7.8876.2875-11.7748.1049c-7.9295-.4015-15.2719-1.1192-21.8567-1.8917s-12.4139-1.5998-17.316-2.3674h-1e-005c-2.6547-.3995-4.9963-.7934-7.0309-1.0908s-3.7639-.5038-5.1853-.6588-2.536-.2643-3.3173-.4132-1.229-.3421-1.2884-.6284z" fill="#790000" fill-rule="evenodd"/>
  <path transform="translate(58.027 24.429)" d="m379.64 730.93c-38.102 39.31-40.162 48.866-68.044 48.655s-24.682-3.1841-67.3-49.679c-18.463-20.143 3.6322-69.697 9.8112-75.429 14.375-13.336 103.75-8.2338 112.13-0.0814 7.7035 7.4941 32.813 56.513 13.406 76.535z" fill="url(#e)"/>
  <path d="m267.57 829.93h202.86c-3.8715 23.034-15.866 44.62-33.38 60.074s-40.426 24.667-63.763 25.64c-24.765 1.0328-49.809-7.2611-69.062-22.872s-32.544-38.399-36.653-62.843" fill="#d40000"/>
  <path d="m286.73 829.84 19.406 35.312 15.094-26.719h98.625l15.094 26.719 21.188-35.312h-169.41z" fill="#fff"/>
  <path d="m414.25 875.46-11.438 15.661h-69.701l-11.509-16.178-9.4643 23.5c13.762 9.1146 30.617 18.421 61.144 17.217 25.403-1.0018 30.866-5.6754 50.983-15.776z" fill="#fff"/>
  <path transform="matrix(2.9426 0 0 1.1067 -852.86 -135.24)" d="m439.56 1249.1c2.9617 9.8551 2.6234 20.495-0.6716 30.222" fill="none" stroke="#4c0202" stroke-linecap="round" stroke-width="2.2166"/>
  <path d="m418.36 1298.5s18.891-28.934 4.5434-38.978c0 0-12.913-1.4348-8.8477 9.565 0 0 9.0868 5.0217 4.3043 29.413z" fill="#030000"/>
  <path transform="matrix(2.9426 0 0 1.1067 -796.11 -136.59)" d="m439.56 1249.1c2.9617 9.8551 2.6234 20.495-0.6716 30.222" fill="none" stroke="#4c0202" stroke-linecap="round" stroke-width="2.2166"/>
  <path d="m469.4 1296.8s18.891-28.934 4.5434-38.978c0 0-12.913-1.4348-8.8477 9.565 0 0 9.0868 5.0217 4.3043 29.413z" fill="#030000"/>
  <path d="m523.47 1282.4s18.891-28.934 4.5434-38.978c0 0-12.913-1.4348-8.8477 9.565 0 0 9.0868 5.0217 4.3043 29.413z" fill="#030000"/>
  <path transform="matrix(-2.9426 0 0 1.1067 1541.2 -149.09)" d="m439.56 1249.1c2.9617 9.8551 2.6234 20.495-0.6716 30.222" fill="none" stroke="#4c0202" stroke-linecap="round" stroke-width="2.2166"/>
  <path d="m269.01 1295.6s-18.891-28.934-4.5434-38.978c0 0 12.913-1.4348 8.8477 9.565 0 0-9.0868 5.0217-4.3043 29.413z" fill="#030000"/>
  <path transform="matrix(-1.1673 -.48285 -.21487 .94209 1002.5 261.85)" d="m439.56 1249.1c2.9617 9.8551 2.6234 20.495-0.6716 30.222" fill="none" stroke="#4c0202" stroke-linecap="round" stroke-width="2.2166"/>
  <path d="m228.27 1289.8s-18.891-28.934-4.5434-38.978c0 0 12.913-1.4348 8.8477 9.565 0 0-9.0868 5.0217-4.3043 29.413z" fill="#030000"/>
  <path d="m192.86 1278.3s-18.891-28.934-4.5434-38.978c0 0 12.913-1.4348 8.8477 9.565 0 0-9.0868 5.0217-4.3043 29.413z" fill="#030000"/>
  <path transform="matrix(2.5847 -1.4065 .52898 .97211 -1201.4 548.29)" d="m439.56 1249.1c2.9617 9.8551 2.6234 20.495-0.6716 30.222" fill="none" stroke="#4c0202" stroke-linecap="round" stroke-width="2.2166"/>
  <path transform="matrix(2.5847 -1.4065 .52898 .97211 -1170.1 529.29)" d="m439.56 1249.1c2.9617 9.8551 2.6234 20.495-0.6716 30.222" fill="none" stroke="#4c0202" stroke-linecap="round" stroke-width="2.2166"/>
  <path d="m594.71 1192.7s9.4762-25.046-3.0559-30.256c0 0-10.012 1.0657-5.1025 8.7133 0 0 7.7139 2.2865 8.1584 21.543z" fill="#030000"/>
  <path d="m628.67 1174.6s9.4762-25.046-3.0559-30.256c0 0-10.012 1.0657-5.1025 8.7133 0 0 7.7139 2.2865 8.1584 21.543z" fill="#030000"/>
  <path d="m656.92 1147.6s9.4762-25.046-3.0559-30.256c0 0-10.012 1.0657-5.1025 8.7133 0 0 7.7139 2.2865 8.1584 21.543z" fill="#030000"/>
  <path d="m567.63 1030.3-24.477 38.209 28.792-20.983 6.5874 17.756-33.698 30.039 40.613-14.995-23.7 30.758 36.522-16.758z" fill="#4d0302"/>
  <path d="m140.32 1016 23.151 39.027-28.054-21.96-7.1932 17.519 32.647 31.178-40.074-16.381 22.63 31.554-35.925-18.002z" fill="#4d0302"/>
 </g>
</svg>
